<svg width="24" height="18" viewBox="0 0 24 18" fill="none" xmlns="http://www.w3.org/2000/svg">
<path d="M4.86279 15.8277C4.86876 15.6145 5.19497 15.4888 6.30421 15.2726C7.97149 14.9476 8.55021 14.7459 9.31997 14.2214C10.6687 13.3024 11.4143 12.0992 11.5135 10.6815C11.5641 9.95739 11.5468 9.84901 11.4047 10.0029C11.3116 10.1037 10.9958 10.4483 10.7029 10.7689C9.60871 11.966 7.62064 12.7242 5.84761 12.6205C4.2235 12.5256 2.80834 11.813 2.12001 10.7435C1.82006 10.2775 1.62662 10.077 1.62671 9.29316C1.62679 8.56321 1.82823 8.29519 2.05609 7.93592C2.44208 7.32733 3.33352 6.6456 4.12571 6.35318C4.70367 6.13984 4.89887 6.1167 5.77397 6.1578C6.37909 6.18621 7.01764 6.28497 7.40957 6.41077C7.76318 6.52427 8.07758 6.59887 8.10823 6.57654C8.13887 6.55422 7.96847 6.2623 7.72956 5.92785C7.33252 5.37206 7.23349 4.95736 7.29378 4.45806C7.39196 3.64493 7.75097 2.75149 8.56617 2.19142C9.41876 1.60567 10.3727 1.32115 11.8927 1.36231C13.3069 1.4006 14.1279 1.7141 14.8916 2.27357C15.6387 2.8209 16.0105 3.6465 16.0988 4.41567C16.1577 4.92927 16.0573 5.29596 15.6299 5.92365C15.372 6.30242 15.2022 6.61232 15.2526 6.61232C15.3029 6.61232 15.6913 6.4947 16.1157 6.35094C18.1005 5.67868 20.3763 6.32988 21.3383 7.84528C21.5691 8.20893 21.7563 8.46712 21.7554 9.29316C21.7545 10.168 21.575 10.3606 21.2927 10.7772C20.3999 12.0946 18.3303 12.8547 16.4401 12.5594C14.8309 12.308 13.4776 11.6006 12.4869 10.493C12.1793 10.149 11.9002 9.86763 11.8668 9.86763C11.7698 9.86763 11.9653 11.1045 12.1657 11.7586C12.5559 13.0325 13.7176 14.189 15.1896 14.7691C15.7528 14.991 16.8998 15.258 18.1532 15.459C18.3485 15.4904 18.529 15.5982 18.5681 15.707C18.6367 15.8981 18.585 15.8995 11.749 15.8995C7.96047 15.8995 4.86168 15.8672 4.86279 15.8277V15.8277Z" fill="black"/>
</svg>
