<svg width="24" height="18" viewBox="0 0 24 18" fill="none" xmlns="http://www.w3.org/2000/svg">
<path d="M18.8983 17.8998C16.0608 17.9013 14.5684 15.9381 13.7856 13.9754C13.0019 12.0112 12.9279 10.0469 12.9279 10.0469L11.48 10.0376C11.48 10.0376 11.2085 17.8946 5.53467 17.8977L18.8983 17.8998Z" fill="black"/>
<path d="M23.6989 10.0445C23.6742 6.21207 14.832 3.43235 12.2358 0.399414C9.6404 3.43235 0.798196 6.21207 0.77311 10.0445C0.761563 11.8542 3.33944 13.3203 6.50505 13.3203C9.66986 13.3203 12.2358 11.8542 12.2358 10.0445C12.2358 11.8542 14.8025 13.3203 17.9681 13.3203C21.1337 13.3203 23.6989 11.8542 23.6989 10.0445V10.0445Z" fill="black"/>
</svg>
